<svg xmlns="http://www.w3.org/2000/svg" xmlns:xlink="http://www.w3.org/1999/xlink" viewBox="0 0 400 300" width="406" height="306" class="illustration styles_illustrationTablet__1DWOa"><defs><linearGradient id="linear-gradient" x1="87.21" y1="172.58" x2="60.18" y2="194.58" gradientUnits="userSpaceOnUse"><stop offset="0" stop-color="#d4a397"></stop><stop offset="1" stop-color="#fff"></stop></linearGradient><linearGradient id="linear-gradient-2" x1="247.69" y1="140.74" x2="131.45" y2="235.36" xlink:href="#linear-gradient"></linearGradient><linearGradient id="linear-gradient-3" x1="319.23" y1="195.46" x2="361.8" y2="166.46" gradientUnits="userSpaceOnUse"><stop offset="0" stop-color="#fff" stop-opacity="0"></stop><stop offset="0.81" stop-color="#262626" stop-opacity="0.57"></stop><stop offset="1" stop-opacity="0.67"></stop></linearGradient><linearGradient id="linear-gradient-4" x1="55.97" y1="191.57" x2="98.54" y2="162.57" xlink:href="#linear-gradient-3"></linearGradient><linearGradient id="linear-gradient-5" x1="351.62" y1="178.91" x2="324.59" y2="200.91" xlink:href="#linear-gradient"></linearGradient></defs><title>PP</title><g style="isolation: isolate;"><g id="Layer_2" data-name="Layer 2"><path d="M194.28,289.32,14.56,183.1c-5.72-3.21-10.63-8.49-5.05-11.94l180.37-104c2.71-1.68,6.82-2.78,9.57-1.18L388.11,175.52c5.72,3.32,6.75,12.6,1,15.93L218,289.15A23.9,23.9,0,0,1,194.28,289.32Z" fill="#96c168"></path><path d="M77.52,182.29l-27.75,8s6.74,7.06,13.4,9.86L86.37,186" fill="url(#linear-gradient)" style="mix-blend-mode: multiply;"></path><path d="M155.79,182.29,82.53,212s70.11,42.72,80.1,46.92l85.62-55.47" fill="url(#linear-gradient-2)" style="mix-blend-mode: multiply;"></path><path d="M266.69,121.87c-4.23-6.27-13.72-27.61-59.3-30.29-16.82-1-36.62.22-50.83,10.22a54.22,54.22,0,0,1-8.1,4.2c-1.84,2.6-3.53,5.35-5.07,8-3.77,6.61-5.7,13.91-7.44,21.25a134,134,0,0,0,0,19c1.08,17.21,6.76,34.59,20.23,46.09,11.76,10,27.33,14,42.48,15C287,220.72,270.92,128.14,266.69,121.87Z" fill="#68e1fd"></path><path d="M270.57,132.17C267.83,120.71,164,113.82,144.22,112.6l-.84,1.45c-4.42,7.76-6.31,16.46-8.34,25.07a38.41,38.41,0,0,0,.11,9.28c2,12.54,12.48,24.42,22.38,12.63,0,0,8.13,15.31,25.86,20s23.54-12.49,23.54-12.49,4.65,12.93,18.31,13.29,23-18.26,23-18.26,4.44,3,12.71,1.28S273.61,144.84,270.57,132.17Z" fill="#ffe8a6"></path><path d="M229.67,87.58c-1.39-.45-41-4.09-67.9,7.46-4.24,2.87-8.2,6.13-12.16,9.4a89.23,89.23,0,0,0-6.23,9.62A60.53,60.53,0,0,0,138,127.24c4,21.6,46.22,31.24,64.9,30.49,22.47-.9,54.67-9.14,62.66-24.29Z" fill="#f2cca7"></path><path d="M197.44,96.92c-3.12.33-6.21.81-9.27,1.43-12.42,2.53-31.4,7.34-35.38,21.41-4.43,15.65,13.58,27.77,47.25,28.8s62-15.9,62.61-25.45c.25-4.1-4.29-7.94-7.07-10.26a71.75,71.75,0,0,0-19.88-11.28C223.56,96.81,210.35,95.55,197.44,96.92Z" fill="#ddb28e"></path><path d="M170.43,142.24c-.39-6.64-2.62-13.6-4-20.09q-3.13-15.32-6.33-30.63c-.78-3.75-.84-8.76-4-11.35-2.35-1.93-6.5-3.44-9.48-2.24-3.26,1.31-6.21,4.52-8.72,6.86-6.13,5.72-11.86,11.91-17.42,18.18-.06.06-1.1,1.27-1.11,1.26l-6.16-4.87,19.05-19.19c2.74-2.76,5.35-6,8.81-8,3.83-2.21,9-3.16,13.24-1.77,5.43,1.77,10.07,4.9,11.17,10.82.75,4,1.5,8.14,2.33,12.2L174,123.89l4.32,21.28Z" fill="#ff734d"></path><path d="M120,102.2a4.28,4.28,0,0,0-.94-1.91,5.27,5.27,0,0,0-1.56-1.59A3.24,3.24,0,0,0,113,99.84a3,3,0,0,0-.13.34,2.15,2.15,0,0,0,.12,2.1l.08.12.12.17a8.36,8.36,0,0,0,2.34,2.35A2.88,2.88,0,0,0,120,102.2Z" fill="#b5391d"></path><path d="M157.54,170.71s2.32,21.05,10.32,29.68C167.85,200.4,156,193,157.54,170.71Z" fill="#426619"></path><path d="M206.17,178.5s-.78,22-2.08,29.47C204.09,208,208.91,196.61,206.17,178.5Z" fill="#426619"></path><path d="M249.7,170.71s0,18.77-11.95,30.74C237.75,201.45,251.88,193.57,249.7,170.71Z" fill="#426619"></path><ellipse cx="204.09" cy="129.14" rx="45.61" ry="19.43" fill="#75dbd6" opacity="0.54"></ellipse><path d="M219.63,86.18a25.69,25.69,0,0,0-7,10.8,26.56,26.56,0,0,0,.67,18l38.62-9.24Z" fill="#68e1fd"></path><path d="M251.92,105.78l27.33,24.55a25.46,25.46,0,0,0,5.66-9.47,26,26,0,0,0,.3-15.08Z" fill="#68e1fd"></path><path d="M229.67,133.74a46.62,46.62,0,0,0,9.46,4.35,44.94,44.94,0,0,0,19.81,2l-7-34.32Z" fill="#68e1fd"></path><path d="M276.23,90.65a44.73,44.73,0,0,0-17.83-10.9,45.91,45.91,0,0,0-14.72-2.35l8.24,28.38Z" fill="#68e1fd"></path><path d="M243.68,77.4c-9.45.07-18.08,3.24-24.05,8.79l32.29,19.59Z" fill="#68e1fd"></path><path d="M285.21,105.78a34.67,34.67,0,0,0-9-15.12l-24.31,15.12Z" fill="#68e1fd"></path><path d="M258.95,140.09c8.13-1.05,15.34-4.47,20.3-9.77l-27.33-24.55Z" fill="#68e1fd"></path><path d="M213.3,115c2.82,7.32,8.57,14,16.37,18.72l22.25-28Z" fill="#68e1fd"></path><g opacity="0.54"><path d="M243.68,77.4c-9.45.07-18.08,3.24-24.05,8.79l32.29,19.59Z" fill="#fff"></path><path d="M285.21,105.78a34.67,34.67,0,0,0-9-15.12l-24.31,15.12Z" fill="#fff"></path><path d="M258.95,140.09c8.13-1.05,15.34-4.47,20.3-9.77l-27.33-24.55Z" fill="#fff"></path><path d="M213.3,115c2.82,7.32,8.57,14,16.37,18.72l22.25-28Z" fill="#fff"></path></g><path d="M344.14,187.24l-59.75,13.93L305,219.7,350.78,192C349.42,189.89,345.83,189.09,344.14,187.24Z" fill="url(#linear-gradient-3)"></path><path d="M345.38,41.83s0-.07,0-.11,0-.16,0-.24c-.25-2,2.65-2.17,3.33-.47a1.43,1.43,0,0,1,.07.22,1.72,1.72,0,0,1,.08.24,347.41,347.41,0,0,1,2.54,45,1.76,1.76,0,0,1-3.29.8,1.84,1.84,0,0,1-2.83-1.38A294.08,294.08,0,0,1,345.38,41.83Z" fill="#ab9e5a"></path><path d="M311.4,75.84c.13-.23.31-.39.45-.6a1.46,1.46,0,0,1,.27-1.08c8.42-12,24.26-7.08,31.46,3.17a14.77,14.77,0,0,1,3.66,8.21c.25,2.08-2.76,2.17-3.36.36a1.63,1.63,0,0,1-.41-.75,17.74,17.74,0,0,0-3-6.14c-2.58-2.5-6.28-3.95-9.93-4.68-4.63-.93-13.37-1.86-16.15,3.25C313.34,79.57,310.33,77.81,311.4,75.84Z" fill="#575c1c"></path><path d="M307.61,64.15c14.3-9.75,37.43,3.1,39.41,19.58a1.42,1.42,0,0,1-1.56,1.65,1.39,1.39,0,0,1-2-.71c-6-13.84-17.88-23.73-33.51-17.69a1.57,1.57,0,0,1-.34.06l-.22.13C307.51,68.42,305.77,65.4,307.61,64.15Z" fill="#636d27"></path><path d="M316.09,54.78a1.84,1.84,0,0,1,.28-.29,3.66,3.66,0,0,1,2.92-.68c16.85-1.6,30.62,15.36,30.76,31.38a1.64,1.64,0,0,1-1.93,1.65,1.8,1.8,0,0,1-2.81-.84c-2.33-7.11-3.72-14.85-9.08-20.45a25,25,0,0,0-19.57-7.44C314.64,58.22,314.46,55.42,316.09,54.78Z" fill="#746927"></path><path d="M324.44,46.85a1.73,1.73,0,0,1,1.15-.2c17,2.91,24.08,18.7,24.56,34.47,0,.38.08.76.1,1.14.13,2.24-3.35,2.23-3.48,0,0,0,0-.09,0-.13a1.62,1.62,0,0,1-.05-.25c0-.25,0-.5,0-.76-1.14-14-8.4-27-22.74-30.89C321.91,49.7,322.58,46.78,324.44,46.85Z" fill="#7d7a33"></path><path d="M348.71,41.83s0-.07,0-.11,0-.16,0-.24c.25-2-2.65-2.17-3.33-.47a1.43,1.43,0,0,0-.07.22,1.72,1.72,0,0,0-.08.24,347.41,347.41,0,0,0-2.54,45,1.76,1.76,0,0,0,3.29.8,1.84,1.84,0,0,0,2.83-1.38A294.08,294.08,0,0,0,348.71,41.83Z" fill="#ab9e5a"></path><path d="M382.68,75.84c-.13-.23-.31-.39-.45-.6a1.46,1.46,0,0,0-.27-1.08c-8.42-12-24.26-7.08-31.46,3.17a14.77,14.77,0,0,0-3.66,8.21c-.25,2.08,2.76,2.17,3.36.36a1.63,1.63,0,0,0,.41-.75,17.74,17.74,0,0,1,3-6.14c2.58-2.5,6.28-3.95,9.93-4.68,4.63-.93,13.37-1.86,16.15,3.25C380.75,79.57,383.75,77.81,382.68,75.84Z" fill="#575c1c"></path><path d="M386.47,64.15c-14.3-9.75-37.43,3.1-39.41,19.58a1.42,1.42,0,0,0,1.56,1.65,1.39,1.39,0,0,0,2-.71c6-13.84,17.88-23.73,33.51-17.69a1.57,1.57,0,0,0,.34.06l.22.13C386.57,68.42,388.32,65.4,386.47,64.15Z" fill="#636d27"></path><path d="M378,54.78a1.84,1.84,0,0,0-.28-.29,3.66,3.66,0,0,0-2.92-.68c-16.85-1.6-30.62,15.36-30.76,31.38A1.64,1.64,0,0,0,346,86.84a1.8,1.8,0,0,0,2.81-.84c2.33-7.11,3.72-14.85,9.08-20.45a25,25,0,0,1,19.57-7.44C379.45,58.22,379.62,55.42,378,54.78Z" fill="#746927"></path><path d="M369.65,46.85a1.73,1.73,0,0,0-1.15-.2c-17,2.91-24.08,18.7-24.56,34.47,0,.38-.08.76-.1,1.14-.13,2.24,3.35,2.23,3.48,0,0,0,0-.09,0-.13a1.62,1.62,0,0,0,.05-.25c0-.25,0-.5,0-.76,1.14-14,8.4-27,22.74-30.89C372.18,49.7,371.5,46.78,369.65,46.85Z" fill="#7d7a33"></path><path d="M342.59,191.6a8.68,8.68,0,0,0,3.91,1.32,9.19,9.19,0,0,0,4.28-.92.83.83,0,0,0,.49-.77c-.15-21.66-1.13-110.07-1.13-110.07h-6.68s.4,8,.84,15.35C344.44,98.83,342.8,170.8,342.59,191.6Z" fill="#974c13"></path><path d="M53.08,206.56l33.29-20.14c-1.36-2.1-5-2.91-6.64-4.76L31,193C38.51,197.26,46,201.66,53.08,206.56Z" fill="url(#linear-gradient-4)"></path><path d="M81,36.26s0-.07,0-.11,0-.16,0-.24c-.25-2,2.65-2.17,3.33-.47a1.43,1.43,0,0,1,.07.22,1.72,1.72,0,0,1,.08.24A347.41,347.41,0,0,1,87,80.9a1.76,1.76,0,0,1-3.29.8,1.84,1.84,0,0,1-2.83-1.38A294.08,294.08,0,0,1,81,36.26Z" fill="#ab9e5a"></path><path d="M47,70.26c.13-.23.31-.39.45-.6a1.46,1.46,0,0,1,.27-1.08c8.42-12,24.26-7.08,31.46,3.17A14.77,14.77,0,0,1,82.84,80c.25,2.08-2.76,2.17-3.36.36a1.63,1.63,0,0,1-.41-.75,17.74,17.74,0,0,0-3-6.14c-2.58-2.5-6.28-3.95-9.93-4.68C61.52,67.84,52.78,66.91,50,72,48.93,74,45.92,72.23,47,70.26Z" fill="#575c1c"></path><path d="M43.2,58.57c14.3-9.75,37.43,3.1,39.41,19.58A1.42,1.42,0,0,1,81,79.8a1.39,1.39,0,0,1-2-.71c-6-13.84-17.88-23.73-33.51-17.69a1.57,1.57,0,0,1-.34.06l-.22.13C43.11,62.84,41.36,59.83,43.2,58.57Z" fill="#636d27"></path><path d="M51.69,49.21a1.84,1.84,0,0,1,.28-.29,3.66,3.66,0,0,1,2.92-.68c16.85-1.6,30.62,15.36,30.76,31.38a1.64,1.64,0,0,1-1.93,1.65,1.8,1.8,0,0,1-2.81-.84C78.57,73.31,77.18,65.57,71.82,60a25,25,0,0,0-19.57-7.44C50.23,52.65,50.06,49.84,51.69,49.21Z" fill="#746927"></path><path d="M60,41.28a1.73,1.73,0,0,1,1.15-.2c17,2.91,24.08,18.7,24.56,34.47,0,.38.08.76.1,1.14.13,2.24-3.35,2.23-3.48,0,0,0,0-.09,0-.13a1.62,1.62,0,0,1-.05-.25c0-.25,0-.5,0-.76-1.14-14-8.4-27-22.74-30.89C57.5,44.12,58.17,41.21,60,41.28Z" fill="#7d7a33"></path><path d="M84.3,36.26s0-.07,0-.11,0-.16,0-.24c.25-2-2.65-2.17-3.33-.47a1.43,1.43,0,0,0-.07.22,1.72,1.72,0,0,0-.08.24,347.41,347.41,0,0,0-2.54,45,1.76,1.76,0,0,0,3.29.8,1.84,1.84,0,0,0,2.83-1.38A294.08,294.08,0,0,0,84.3,36.26Z" fill="#ab9e5a"></path><path d="M118.27,70.26c-.13-.23-.31-.39-.45-.6a1.46,1.46,0,0,0-.27-1.08c-8.42-12-24.26-7.08-31.46,3.17A14.77,14.77,0,0,0,82.43,80c-.25,2.08,2.76,2.17,3.36.36a1.63,1.63,0,0,0,.41-.75,17.74,17.74,0,0,1,3-6.14c2.58-2.5,6.28-3.95,9.93-4.68,4.63-.93,13.37-1.86,16.15,3.25C116.34,74,119.35,72.23,118.27,70.26Z" fill="#575c1c"></path><path d="M122.07,58.57c-14.3-9.75-37.43,3.1-39.41,19.58a1.42,1.42,0,0,0,1.56,1.65,1.39,1.39,0,0,0,2-.71c6-13.84,17.88-23.73,33.51-17.69a1.57,1.57,0,0,0,.34.06l.22.13C122.16,62.84,123.91,59.83,122.07,58.57Z" fill="#636d27"></path><path d="M113.58,49.21a1.84,1.84,0,0,0-.28-.29,3.66,3.66,0,0,0-2.92-.68c-16.85-1.6-30.62,15.36-30.76,31.38a1.64,1.64,0,0,0,1.93,1.65,1.8,1.8,0,0,0,2.81-.84C86.7,73.31,88.09,65.57,93.45,60A25,25,0,0,1,113,52.54C115,52.65,115.21,49.84,113.58,49.21Z" fill="#746927"></path><path d="M105.24,41.28a1.73,1.73,0,0,0-1.15-.2C87.11,44,80,59.77,79.53,75.55c0,.38-.08.76-.1,1.14-.13,2.24,3.35,2.23,3.48,0,0,0,0-.09,0-.13a1.62,1.62,0,0,0,.05-.25c0-.25,0-.5,0-.76,1.14-14,8.4-27,22.74-30.89C107.77,44.12,107.09,41.21,105.24,41.28Z" fill="#7d7a33"></path><path d="M78.19,186a8.68,8.68,0,0,0,3.91,1.32,9.19,9.19,0,0,0,4.28-.92.83.83,0,0,0,.49-.77C86.72,164,85.73,75.58,85.73,75.58H79.06s.4,8,.84,15.35C80,93.25,78.4,165.22,78.19,186Z" fill="#974c13"></path><path d="M341.93,188.63l-27.75,8s6.74,7.06,13.4,9.86l23.2-14.23" fill="url(#linear-gradient-5)" style="mix-blend-mode: multiply;"></path></g></g></svg>